<svg width="140" height="28" viewBox="0 0 140 28" fill="none" xmlns="http://www.w3.org/2000/svg">
<path d="M5.875 9.925H12.95V2.65H17.85V21.5H12.95V13.725H5.875V21.5H0.975V2.65H5.875V9.925ZM26.0252 19.75L19.8252 8.675H25.0752L28.5002 15.25L31.8252 8.675H37.0252L26.7252 27.9H21.6502L26.0252 19.75ZM48.8121 15.125C48.8121 14.725 48.7371 14.35 48.5871 14C48.4538 13.6333 48.2538 13.3167 47.9871 13.05C47.7204 12.7833 47.4038 12.575 47.0371 12.425C46.6871 12.2583 46.3038 12.175 45.8871 12.175C45.4871 12.175 45.1121 12.25 44.7621 12.4C44.4121 12.55 44.1038 12.7583 43.8371 13.025C43.5871 13.2917 43.3788 13.6083 43.2121 13.975C43.0621 14.325 42.9871 14.7 42.9871 15.1C42.9871 15.5 43.0621 15.875 43.2121 16.225C43.3621 16.575 43.5704 16.8833 43.8371 17.15C44.1038 17.4 44.4121 17.6083 44.7621 17.775C45.1288 17.925 45.5121 18 45.9121 18C46.3121 18 46.6871 17.925 47.0371 17.775C47.3871 17.625 47.6871 17.4167 47.9371 17.15C48.2038 16.8833 48.4121 16.575 48.5621 16.225C48.7288 15.875 48.8121 15.5083 48.8121 15.125ZM43.1121 27.9H38.5871V8.675H43.1121V10.1C44.0788 8.88333 45.3954 8.275 47.0621 8.275C47.9788 8.275 48.8288 8.45833 49.6121 8.825C50.4121 9.175 51.1038 9.65833 51.6871 10.275C52.2704 10.8917 52.7204 11.6167 53.0371 12.45C53.3704 13.2833 53.5371 14.175 53.5371 15.125C53.5371 16.075 53.3704 16.9583 53.0371 17.775C52.7204 18.5917 52.2704 19.3083 51.6871 19.925C51.1204 20.5417 50.4454 21.025 49.6621 21.375C48.8788 21.725 48.0288 21.9 47.1121 21.9C45.5121 21.9 44.1788 21.35 43.1121 20.25V27.9ZM65.4914 13.225C65.3414 12.5917 65.0331 12.0833 64.5664 11.7C64.0997 11.3167 63.5331 11.125 62.8664 11.125C62.1664 11.125 61.5914 11.3083 61.1414 11.675C60.7081 12.0417 60.4331 12.5583 60.3164 13.225H65.4914ZM60.1914 15.85C60.1914 17.8 61.1081 18.775 62.9414 18.775C63.9247 18.775 64.6664 18.375 65.1664 17.575H69.5414C68.6581 20.5083 66.4497 21.975 62.9164 21.975C61.8331 21.975 60.8414 21.8167 59.9414 21.5C59.0414 21.1667 58.2664 20.7 57.6164 20.1C56.9831 19.5 56.4914 18.7833 56.1414 17.95C55.7914 17.1167 55.6164 16.1833 55.6164 15.15C55.6164 14.0833 55.7831 13.125 56.1164 12.275C56.4497 11.4083 56.9247 10.675 57.5414 10.075C58.1581 9.475 58.8997 9.01667 59.7664 8.7C60.6497 8.36667 61.6414 8.2 62.7414 8.2C63.8247 8.2 64.7997 8.36667 65.6664 8.7C66.5331 9.01667 67.2664 9.48333 67.8664 10.1C68.4664 10.7167 68.9247 11.475 69.2414 12.375C69.5581 13.2583 69.7164 14.2583 69.7164 15.375V15.85H60.1914ZM72.3029 8.675H76.8279V10.775C77.3113 10.0083 77.9029 9.425 78.6029 9.025C79.3029 8.60833 80.1196 8.4 81.0529 8.4C81.1696 8.4 81.2946 8.4 81.4279 8.4C81.5779 8.4 81.7446 8.41667 81.9279 8.45V12.775C81.3279 12.475 80.6779 12.325 79.9779 12.325C78.9279 12.325 78.1363 12.6417 77.6029 13.275C77.0863 13.8917 76.8279 14.8 76.8279 16V21.5H72.3029V8.675Z" fill="white"/>
<path d="M91.499 6.8V21.5H86.599V6.8H82.574V2.65H95.524V6.8H91.499ZM105.799 13.225C105.649 12.5917 105.341 12.0833 104.874 11.7C104.407 11.3167 103.841 11.125 103.174 11.125C102.474 11.125 101.899 11.3083 101.449 11.675C101.016 12.0417 100.741 12.5583 100.624 13.225H105.799ZM100.499 15.85C100.499 17.8 101.416 18.775 103.249 18.775C104.232 18.775 104.974 18.375 105.474 17.575H109.849C108.966 20.5083 106.757 21.975 103.224 21.975C102.141 21.975 101.149 21.8167 100.249 21.5C99.349 21.1667 98.574 20.7 97.924 20.1C97.2907 19.5 96.799 18.7833 96.449 17.95C96.099 17.1167 95.924 16.1833 95.924 15.15C95.924 14.0833 96.0907 13.125 96.424 12.275C96.7574 11.4083 97.2324 10.675 97.849 10.075C98.4657 9.475 99.2074 9.01667 100.074 8.7C100.957 8.36667 101.949 8.2 103.049 8.2C104.132 8.2 105.107 8.36667 105.974 8.7C106.841 9.01667 107.574 9.48333 108.174 10.1C108.774 10.7167 109.232 11.475 109.549 12.375C109.866 13.2583 110.024 14.2583 110.024 15.375V15.85H100.499ZM122.286 12.825C121.502 12.2917 120.711 12.025 119.911 12.025C119.477 12.025 119.069 12.1 118.686 12.25C118.319 12.4 117.994 12.6167 117.711 12.9C117.427 13.1667 117.202 13.4917 117.036 13.875C116.886 14.2417 116.811 14.6583 116.811 15.125C116.811 15.575 116.886 15.9917 117.036 16.375C117.202 16.7417 117.419 17.0667 117.686 17.35C117.969 17.6167 118.302 17.825 118.686 17.975C119.069 18.125 119.477 18.2 119.911 18.2C120.761 18.2 121.552 17.9083 122.286 17.325V21.175C121.169 21.6583 120.111 21.9 119.111 21.9C118.177 21.9 117.286 21.7417 116.436 21.425C115.602 21.1083 114.861 20.6583 114.211 20.075C113.577 19.475 113.069 18.7667 112.686 17.95C112.302 17.1167 112.111 16.1917 112.111 15.175C112.111 14.1583 112.294 13.2333 112.661 12.4C113.027 11.55 113.527 10.825 114.161 10.225C114.794 9.60833 115.544 9.13333 116.411 8.8C117.294 8.45 118.236 8.275 119.236 8.275C120.336 8.275 121.352 8.50833 122.286 8.975V12.825ZM125.501 0.749999H130.026V10.3C130.643 9.55 131.268 9.05 131.901 8.8C132.535 8.53333 133.276 8.4 134.126 8.4C135.743 8.4 136.96 8.85 137.776 9.75C138.61 10.6333 139.026 11.8333 139.026 13.35V21.5H134.501V15.025C134.501 14.375 134.451 13.85 134.351 13.45C134.251 13.05 134.085 12.7417 133.851 12.525C133.451 12.175 132.968 12 132.401 12C131.635 12 131.043 12.2333 130.626 12.7C130.226 13.15 130.026 13.8 130.026 14.65V21.5H125.501V0.749999Z" fill="#F4770D"/>
</svg>
