<svg width="30" height="30" viewBox="0 0 30 30" fill="none" xmlns="http://www.w3.org/2000/svg">
<path d="M15 27.5C16.6418 27.5021 18.2679 27.1798 19.7848 26.5515C21.3016 25.9231 22.6793 25.0012 23.8388 23.8388C25.0012 22.6793 25.9231 21.3016 26.5515 19.7848C27.1798 18.2679 27.5021 16.6418 27.5 15C27.5021 13.3582 27.1797 11.7321 26.5514 10.2153C25.9231 8.69843 25.0012 7.3207 23.8388 6.16126C22.6793 4.99878 21.3016 4.07688 19.7848 3.44856C18.2679 2.82024 16.6418 2.49788 15 2.50001C13.3582 2.49792 11.7321 2.82029 10.2153 3.44861C8.69843 4.07693 7.3207 4.99881 6.16126 6.16126C4.99881 7.3207 4.07693 8.69843 3.44861 10.2153C2.82029 11.7321 2.49792 13.3582 2.50001 15C2.49788 16.6418 2.82024 18.2679 3.44856 19.7848C4.07688 21.3016 4.99878 22.6793 6.16126 23.8388C7.3207 25.0012 8.69843 25.9231 10.2153 26.5514C11.7321 27.1797 13.3582 27.5021 15 27.5Z" stroke="#F4770D" stroke-width="2" stroke-linejoin="round"/>
<path fill-rule="evenodd" clip-rule="evenodd" d="M15 23.125C15.4144 23.125 15.8118 22.9604 16.1049 22.6674C16.3979 22.3743 16.5625 21.9769 16.5625 21.5625C16.5625 21.1481 16.3979 20.7507 16.1049 20.4576C15.8118 20.1646 15.4144 20 15 20C14.5856 20 14.1882 20.1646 13.8951 20.4576C13.6021 20.7507 13.4375 21.1481 13.4375 21.5625C13.4375 21.9769 13.6021 22.3743 13.8951 22.6674C14.1882 22.9604 14.5856 23.125 15 23.125Z" fill="#F4770D"/>
<path d="M15 7.5V17.5" stroke="#F4770D" stroke-width="2" stroke-linecap="round" stroke-linejoin="round"/>
</svg>
