<svg width="400" height="296" viewBox="0 0 400 296" fill="none" xmlns="http://www.w3.org/2000/svg">
<g clip-path="url(#clip0_26_774)">
<path d="M157.25 367.763H239.462C240.137 367.763 240.706 365.956 240.706 363.856V112.256C240.706 110.144 240.137 108.35 239.462 108.35H157.25C156.875 108.35 156.6 108.756 156.394 109.4L156.381 109.531C156.381 109.531 156.356 109.544 156.344 109.663C156.094 110.508 155.982 111.388 156.012 112.269V363.869C156.012 365.956 156.569 367.763 157.25 367.763Z" fill="#DFAD92"/>
<path d="M194.438 367.763H239.994C240.381 367.763 240.688 365.956 240.688 363.856V112.256C240.688 110.144 240.375 108.35 239.994 108.35H194.444C194.238 108.35 194.081 108.756 193.981 109.4L193.969 109.531C193.969 109.531 193.956 109.544 193.944 109.663C193.803 110.524 193.742 111.396 193.763 112.269V363.869C193.763 365.956 194.063 367.763 194.438 367.763Z" fill="#A4806D"/>
<path d="M157.25 259.231H239.438C240.125 259.231 240.694 258.844 240.694 258.388V203.438C240.694 202.975 240.125 202.575 239.438 202.575H157.238C156.943 202.567 156.654 202.647 156.406 202.806L156.369 202.831L156.319 202.869C156.223 202.928 156.143 203.011 156.088 203.109C156.032 203.208 156.002 203.318 156 203.431V258.381C156 258.85 156.544 259.231 157.238 259.231" fill="#A4806D"/>
<path d="M133.688 38H63.0188C28.225 38 0 76.575 0 124.144V229.156H70.6688V124.144C70.6688 76.575 98.875 38 133.688 38Z" fill="#7C9C9F"/>
<path d="M298.269 38H133.687C98.875 38 70.6875 76.575 70.6875 124.144V229.156H361.294V124.144C361.294 76.575 333.081 38 298.294 38" fill="white"/>
<path d="M145.312 38H63.0312C28.2313 38 0.03125 76.575 0.03125 124.144V229.156H208.356V124.144C208.356 76.575 180.144 38 145.356 38" fill="#A4806D"/>
<path d="M399.394 145.987C399.419 146.025 399.569 146.037 399.569 146.075V221.469C399.578 221.736 399.518 222.001 399.394 222.237C399.394 222.237 399.369 222.237 399.369 222.25H399.344C399.262 222.406 399.112 222.544 398.937 222.544H358.119C357.756 222.544 357.475 222.031 357.475 221.4V180.356H233.5C232.144 180.356 230.969 180.112 230.969 179.844V146.006C230.969 145.712 232.144 145.481 233.5 145.481H398.937C399.125 145.481 399.294 145.669 399.394 145.925" fill="#1D3340"/>
<path d="M140.426 50H66.5675C35.3409 50 10 86.1164 10 130.668V229H197V130.668C197 86.1164 171.683 50 140.426 50Z" fill="#425059"/>
</g>
<defs>
<clipPath id="clip0_26_774">
<rect width="400" height="305" fill="white" transform="translate(0 -9)"/>
</clipPath>
</defs>
</svg>
