<svg width="16" height="17" viewBox="0 0 16 17" fill="none" xmlns="http://www.w3.org/2000/svg">
<path d="M9.46858 15.5H9.49983C9.65427 15.5009 9.80542 15.4552 9.9336 15.3691C10.0618 15.2829 10.1611 15.1602 10.2186 15.0168L10.1967 15.0085L10.1967 15.0083C10.141 15.1472 10.0447 15.2661 9.92052 15.3496C9.79624 15.4332 9.64971 15.4774 9.49996 15.4765H9.49983H9.4691M9.46858 15.5L9.46963 15.4766C9.46945 15.4765 9.46928 15.4765 9.4691 15.4765M9.46858 15.5V15.4765H9.4691M9.46858 15.5L9.4691 15.4765M9.4691 15.4765C9.17379 15.463 8.92874 15.2657 8.83168 14.9845L8.83151 14.9841C8.82949 14.9786 8.82777 14.9734 8.82603 14.9676L8.82617 14.9676L8.82513 14.9651L6.99283 10.6732C6.96895 10.5938 6.9662 10.5095 6.98487 10.4287C7.00363 10.3475 7.04336 10.2726 7.1001 10.2116L9.4691 15.4765ZM14.7645 1.73682C14.8636 1.83629 14.9317 1.96234 14.9607 2.09971C14.9896 2.23709 14.9781 2.37991 14.9276 2.51091L14.9276 2.51105L10.1968 15.0081L7.10012 10.2115L13.5164 3.32904C13.5165 3.32894 13.5166 3.32885 13.5167 3.32875C13.5393 3.30611 13.5572 3.27928 13.5694 3.24975C13.5817 3.2201 13.588 3.18832 13.588 3.15622C13.588 3.12412 13.5817 3.09234 13.5694 3.06269C13.5571 3.03304 13.5391 3.00609 13.5164 2.9834C13.4937 2.9607 13.4668 2.9427 13.4371 2.93042C13.4075 2.91813 13.3757 2.91181 13.3436 2.91181C13.3115 2.91181 13.2797 2.91813 13.25 2.93042C13.2205 2.94264 13.1937 2.96054 13.1711 2.9831C13.171 2.9832 13.1709 2.9833 13.1708 2.9834L6.28512 9.39936C6.22406 9.45611 6.14918 9.49585 6.06797 9.51461C5.98716 9.53328 5.90288 9.53054 5.82347 9.50666L1.53403 7.67498L1.53408 7.67488L1.53191 7.67419L1.51945 7.67024C1.51939 7.67022 1.51933 7.6702 1.51927 7.67018C1.37747 7.62269 1.25378 7.53261 1.16507 7.41222C1.07633 7.29178 1.02693 7.14688 1.02362 6.99731C1.0203 6.84774 1.06324 6.7008 1.14657 6.57655C1.22872 6.45406 1.34617 6.35951 1.48327 6.3054V6.30628L1.49156 6.30314L13.9925 1.57158L13.9925 1.57156C14.1235 1.52177 14.266 1.51089 14.4029 1.54021C14.5399 1.56953 14.6654 1.63781 14.7645 1.73682ZM14.7645 1.73682C14.7645 1.73683 14.7645 1.73684 14.7645 1.73686L14.7811 1.72028L14.7645 1.73682Z" fill="white" stroke="white" stroke-width="0.046875"/>
</svg>
